<svg width="107" height="117" viewBox="0 0 107 117" fill="none" xmlns="http://www.w3.org/2000/svg">
<g clip-path="url(#clip0_424_40)">
<path d="M52.0411 51.2055L6.19133 29.9396C3.09087 28.5015 3.10536 24.0889 6.2152 22.6712L52.0654 1.7698C53.1364 1.28159 54.368 1.28982 55.4323 1.7923L99.7045 22.6935C102.75 24.1311 102.764 28.4583 99.7287 29.9163L55.4561 51.1824C54.3784 51.7001 53.1257 51.7086 52.0411 51.2055Z" fill="#B75A5E"/>
<path d="M103.966 95.0869L104.13 41.2043C104.139 38.2539 101.059 36.3094 98.3993 37.5857L59.2421 56.3734C57.8588 57.0371 56.9771 58.4335 56.9725 59.9678L56.8151 112.744C56.8065 115.654 59.8093 117.599 62.4615 116.401L101.612 98.7202C103.041 98.075 103.961 96.6546 103.966 95.0869Z" fill="#C2C372"/>
<path d="M1.94231 93.7569L1.94223 41.5653C1.94223 38.64 4.97951 36.7042 7.6312 37.9393L47.6311 56.5714C49.0408 57.228 49.9422 58.6422 49.9422 60.1973L49.9422 112.682C49.9422 115.618 46.8851 117.554 44.2315 116.298L4.23158 97.3726C2.83372 96.7112 1.94231 95.3033 1.94231 93.7569Z" fill="#4098B8"/>
</g>
<defs>
<clipPath id="clip0_424_40">
<rect width="107" height="117" fill="white"/>
</clipPath>
</defs>
</svg>
