<svg width="107" height="117" viewBox="0 0 107 117" fill="none" xmlns="http://www.w3.org/2000/svg">
<g clip-path="url(#clip0_424_40)">
<rect width="107" height="117" fill="white"/>
<path d="M52.0411 51.2055L6.19133 29.9396C3.09087 28.5015 3.10536 24.0889 6.2152 22.6712L52.0654 1.7698C53.1364 1.28159 54.368 1.28982 55.4323 1.7923L99.7045 22.6935C102.75 24.1311 102.764 28.4583 99.7287 29.9163L55.4561 51.1824C54.3784 51.7001 53.1257 51.7086 52.0411 51.2055Z" fill="#E45E71"/>
<path d="M103.966 94.0869L104.13 40.2043C104.139 37.2539 101.059 35.3094 98.3993 36.5857L59.2421 55.3734C57.8588 56.0371 56.9771 57.4335 56.9725 58.9678L56.8151 111.744C56.8065 114.654 59.8093 116.599 62.4615 115.401L101.612 97.7202C103.041 97.075 103.961 95.6546 103.966 94.0869Z" fill="#CAE373"/>
<path d="M1.94231 92.7569L1.94223 40.5653C1.94223 37.64 4.97951 35.7042 7.6312 36.9393L47.6311 55.5714C49.0408 56.228 49.9422 57.6422 49.9422 59.1973L49.9422 111.682C49.9422 114.618 46.8851 116.554 44.2315 115.298L4.23158 96.3726C2.83372 95.7112 1.94231 94.3033 1.94231 92.7569Z" fill="#37C6CC"/>
</g>
<defs>
<clipPath id="clip0_424_40">
<rect width="107" height="117" fill="white"/>
</clipPath>
</defs>
</svg>
